<?xml version="1.0" encoding="UTF-8"?>
<svg id="Layer_1" xmlns="http://www.w3.org/2000/svg" viewBox="0 0 666.14 170.08">
  <defs>
    <style>
      .cls-1 {
        fill: #fff;
      }
    </style>
  </defs>
  <g>
    <path class="cls-1" d="M59.64,68.51c-.32-.32-.8-.41-1.22-.24-.42.17-.69.58-.69,1.04v31.77c0,.45.27.86.69,1.04.14.06.28.09.43.09.29,0,.58-.11.79-.33l15.89-15.89c.21-.21.33-.5.33-.79s-.12-.58-.33-.79l-15.89-15.89Z"/>
    <path class="cls-1" d="M126.6,90.47c2.09,2.09,4.85,3.24,7.77,3.24,6.1,0,11.06-4.95,11.06-11.04v-42.91c0-6.12-4.98-11.12-11.11-11.13l-43.14-.09c-4.45,0-8.42,2.66-10.12,6.77-1.7,4.11-.77,8.8,2.37,11.94l9.78,9.79-4.31,4.31-27.75-27.75c-3.18-3.18-7.4-4.92-11.89-4.92-9.27,0-16.81,7.54-16.81,16.81v79.22c0,9.28,7.55,16.83,16.83,16.83,4.5,0,8.74-1.75,11.91-4.93l27.7-27.7,27.76,27.77c3.14,3.14,7.32,4.87,11.75,4.87h.39c9.16,0,16.62-7.46,16.62-16.83,0-4.44-1.73-8.62-4.88-11.76l-27.87-27.82,4.29-4.29,9.63,9.64ZM101.01,85.92l33.32,33.26c1.48,1.48,2.29,3.44,2.29,5.73,0,4.31-3.5,7.81-7.81,7.81h-.39c-2.09,0-4.05-.81-5.52-2.29l-33.2-33.2c-.22-.22-.51-.33-.79-.33s-.57.11-.79.33l-33.14,33.14c-1.51,1.51-3.53,2.35-5.69,2.35-4.42,0-8.02-3.6-8.02-8.02V45.49c0-4.41,3.59-8,8-8,2.14,0,4.15.83,5.66,2.35l33.18,33.18c.44.44,1.15.44,1.59,0l15.18-15.18c.44-.44.44-1.15,0-1.59l-15.21-15.22c-.94-.94-.6-2.03-.47-2.35s.66-1.33,1.99-1.33h0l43.11.09c1.28,0,2.32,1.05,2.32,2.33v42.91c0,1.54-1.32,2.23-2.25,2.23-.59,0-1.1-.22-1.54-.66l-15.06-15.08c-.21-.21-.5-.33-.79-.33s-.58.12-.79.33l-15.17,15.17c-.21.21-.33.5-.33.79s.12.58.33.79Z"/>
  </g>
  <g>
    <path class="cls-1" d="M301.55,58.95h-11.01l.03-10.51c0-.9-.35-1.75-.98-2.39-.63-.64-1.49-.99-2.38-.99h-2.03c-4.58,0-8.42,3.23-8.95,7.43-.04.22-.07.44-.07.67v50.28c0,12.09,6.15,18.76,17.32,18.76h5.39c1.86,0,3.37-1.51,3.37-3.37v-7.77c0-1.86-1.51-3.37-3.37-3.37h-4.95c-3.01,0-3.34-4.2-3.34-6h0s-.04-28.18-.04-28.18h11.02c1.86,0,3.37-1.51,3.37-3.37v-7.82c0-1.86-1.51-3.37-3.37-3.37Z"/>
    <path class="cls-1" d="M572.26,58.84h-11.57v-10.61c0-1.86-1.51-3.37-3.37-3.37h-2.11c-4.7,0-8.66,3.27-9.17,7.51-.04.21-.06.41-.06.62v50.74c0,12.19,6.34,18.9,17.85,18.9h5.59c1.86,0,3.37-1.51,3.37-3.37v-7.84c0-1.86-1.51-3.37-3.37-3.37h-5.13c-3.25,0-3.6-4.26-3.6-6.09v-28.52h11.57c1.86,0,3.37-1.51,3.37-3.37v-7.89c0-1.86-1.51-3.37-3.37-3.37Z"/>
    <path class="cls-1" d="M406.58,58.95h-10.47c-11.56,0-17.93,6.74-17.93,18.98v41c0,1.86,1.51,3.37,3.37,3.37h7.87c1.86,0,3.37-1.51,3.37-3.37v-40.63c0-4.38,1.65-4.74,3.64-4.74h10.15c1.86,0,3.37-1.51,3.37-3.37v-7.88c0-1.86-1.51-3.37-3.37-3.37Z"/>
    <path class="cls-1" d="M467.9,44.97h-2.1c-5.23,0-9.48,3.81-9.48,8.5v5.4h-11.72c-17.46.78-31.13,14.75-31.13,31.79s13.68,31.08,31.29,31.86h23.15c1.86,0,3.37-1.51,3.37-3.37V48.33c0-1.86-1.51-3.37-3.37-3.37ZM456.32,73.65v34.21h-10.19c-9.13,0-17.76-8.36-17.76-17.2s8.47-17.01,17.76-17.01h10.19Z"/>
    <path class="cls-1" d="M630.32,59.12h-22.55c-16.28,0-30.55,14.9-30.55,31.9s13.35,31.17,30.55,31.96h22.55c1.86,0,3.37-1.51,3.37-3.37v-57.12c0-1.86-1.51-3.37-3.37-3.37ZM618.96,73.93v34.36h-9.84c-8.85,0-17.21-8.39-17.21-17.27s8.2-17.09,17.21-17.09h9.84Z"/>
    <path class="cls-1" d="M223.92,58.95h-22.21c-16.06,0-30.15,14.71-30.15,31.47s13.17,30.76,30.15,31.53h22.21c1.86,0,3.37-1.51,3.37-3.37v-56.27c0-1.86-1.51-3.37-3.37-3.37ZM212.68,107.38h-9.65c-8.69,0-16.91-8.24-16.91-16.96s8.06-16.78,16.91-16.78h9.65v33.74Z"/>
    <path class="cls-1" d="M339.76,59.1c-16.7,0-30.29,14.21-30.29,31.68s13.5,31.57,30.12,31.67h19.89c1.86,0,3.37-1.51,3.37-3.37v-7.8c0-1.86-1.51-3.37-3.37-3.37h-19.86c-6.77-.05-12.68-4.63-14.97-11.12h41.87c1.74,0,3.2-1.33,3.35-3.07.09-.97.14-1.95.14-2.95,0-17.47-13.57-31.68-30.26-31.68ZM325.78,82.23c2.83-5.21,8.11-8.59,13.97-8.59s11.13,3.38,13.95,8.59h-27.92Z"/>
    <path class="cls-1" d="M261.71,107.43h-5.7c-1.43,0-2.9,0-2.9-3.9v-55.08c0-1.86-1.51-3.37-3.37-3.37h-2.72c-4.37,0-8.05,3.03-8.57,6.98-.04.22-.07.44-.07.67v52.09c0,11.18,5.82,17.33,16.4,17.33h6.94c1.86,0,3.37-1.51,3.37-3.37v-8c0-1.86-1.51-3.37-3.37-3.37Z"/>
    <path class="cls-1" d="M531.54,59.01h-22.49c-16.23,0-30.47,14.86-30.47,31.81s13.32,31.09,30.47,31.87h22.49c1.86,0,3.37-1.51,3.37-3.37v-56.95c0-1.86-1.51-3.37-3.37-3.37ZM520.19,108.03h-9.8c-8.82,0-17.15-8.36-17.15-17.21s8.17-17.02,17.15-17.02h9.8v34.23Z"/>
  </g>
</svg>